<svg xmlns="http://www.w3.org/2000/svg" xmlns:xlink="http://www.w3.org/1999/xlink"><symbol id="Vector" viewBox="0 0 16 16"><g fill="none">
    <path fill-rule="evenodd" clip-rule="evenodd" d="M5.529 3.529c.26-.26.682-.26.942 0l4 4c.26.26.26.682 0 .942l-4 4a.667.667 0 1 1-.942-.942L9.057 8 5.53 4.471a.667.667 0 0 1 0-.942Z" fill="CurrentColor"/>
</g></symbol><symbol id="date" viewBox="0 0 18 20"><g fill="none">
    <path d="M3.167 19.169h11.666c1.384 0 2.5-1.117 2.5-2.5V5.002c0-1.383-1.116-2.5-2.5-2.5h-1.666v-.833a.836.836 0 0 0-.834-.834.836.836 0 0 0-.833.834v.833h-5v-.833a.836.836 0 0 0-.833-.834.836.836 0 0 0-.834.834v.833H3.167a2.497 2.497 0 0 0-2.5 2.5v11.667c0 1.383 1.116 2.5 2.5 2.5Zm11.666-1.667H3.167a.836.836 0 0 1-.834-.833v-7.5h13.334v7.5a.836.836 0 0 1-.834.833ZM3.167 4.169h1.666v.833c0 .458.375.833.834.833a.836.836 0 0 0 .833-.833v-.833h5v.833c0 .458.375.833.833.833a.836.836 0 0 0 .834-.833v-.833h1.666c.459 0 .834.375.834.833v2.5H2.333v-2.5c0-.458.375-.833.834-.833Z" fill="CurrentColor"/>
</g></symbol><symbol id="delete" viewBox="0 0 10 10"><g fill="none">
    <path d="M9.471 1.471A.667.667 0 1 0 8.53.53L5 4.057 1.471.53a.667.667 0 1 0-.942.942L4.057 5 .53 8.529a.667.667 0 0 0 .942.942L5 5.943 8.529 9.47a.667.667 0 0 0 .942-.942L5.943 5 9.47 1.471Z" fill="CurrentColor"/>
</g></symbol><symbol id="fillter" viewBox="0 0 16 14"><g fill="none">
    <path fill-rule="evenodd" clip-rule="evenodd" d="M.729.72a.667.667 0 0 1 .604-.387h13.334a.667.667 0 0 1 .509 1.097L10 7.55V13a.667.667 0 0 1-.965.596L6.37 12.263A.667.667 0 0 1 6 11.667V7.55L.824 1.43A.667.667 0 0 1 .73.718Zm2.041.947 4.406 5.21c.101.12.157.272.157.43v3.948l1.334.666V7.307c0-.158.056-.31.157-.43l4.406-5.21H2.77Z" fill="CurrentColor"/>
</g></symbol><symbol id="kebab" viewBox="0 0 4 16"><g fill="none">
    <path d="M.333 2.167a1.667 1.667 0 1 1 3.334 0 1.667 1.667 0 0 1-3.334 0ZM.333 8a1.667 1.667 0 1 1 3.334 0A1.667 1.667 0 0 1 .333 8ZM2 12.167A1.667 1.667 0 1 0 2 15.5a1.667 1.667 0 0 0 0-3.333Z" fill="CurrentColor"/>
</g></symbol><symbol id="plus" viewBox="0 0 14 14"><g fill="none">
    <path d="M7.833 1.167a.833.833 0 1 0-1.666 0v5h-5a.833.833 0 1 0 0 1.666h5v5a.833.833 0 1 0 1.666 0v-5h5a.833.833 0 1 0 0-1.666h-5v-5Z" fill="CurrentColor"/>
</g></symbol><symbol id="search" viewBox="0 0 14 14"><g fill="none">
    <path fill-rule="evenodd" clip-rule="evenodd" d="M10.079 11.021a6 6 0 1 1 .943-.943l2.45 2.45a.667.667 0 1 1-.943.943l-2.45-2.45ZM1.666 6.333a4.667 4.667 0 1 1 8.028 3.238.672.672 0 0 0-.124.123 4.667 4.667 0 0 1-7.904-3.361Z" fill="CurrentColor"/>
</g></symbol><symbol id="settings" viewBox="0 0 20 20"><g fill="none">
    <path fill-rule="evenodd" clip-rule="evenodd" d="M10 8.333a1.667 1.667 0 1 0 0 3.334 1.667 1.667 0 0 0 0-3.334ZM6.667 10a3.333 3.333 0 1 1 6.666 0 3.333 3.333 0 0 1-6.666 0Z" fill="CurrentColor"/>
    <path fill-rule="evenodd" clip-rule="evenodd" d="M10 1.667a.833.833 0 0 0-.833.833v.145a2.208 2.208 0 0 1-1.339 2.02.833.833 0 0 1-.22.061 2.208 2.208 0 0 1-2.274-.505l-.007-.007-.05-.05a.836.836 0 0 0-1.18 0 .833.833 0 0 0 0 1.18l.057.057a2.208 2.208 0 0 1 .452 2.411 2.208 2.208 0 0 1-2.012 1.421H2.5a.833.833 0 0 0 0 1.667h.145a2.208 2.208 0 0 1 2.02 1.334 2.208 2.208 0 0 1-.444 2.432l-.007.007-.05.05a.835.835 0 0 0 0 1.18.833.833 0 0 0 1.18 0l.057-.057a2.209 2.209 0 0 1 2.411-.452 2.208 2.208 0 0 1 1.421 2.011v.095a.833.833 0 0 0 1.667 0v-.145a2.208 2.208 0 0 1 1.334-2.02 2.209 2.209 0 0 1 2.432.444l.007.007.05.05a.836.836 0 0 0 .909.181.834.834 0 0 0 .27-.18v-.002a.832.832 0 0 0 0-1.179l-.056-.057a2.209 2.209 0 0 1-.444-2.431 2.209 2.209 0 0 1 2.02-1.335h.078a.834.834 0 0 0 0-1.666h-.145a2.208 2.208 0 0 1-2.021-1.339.837.837 0 0 1-.06-.22 2.208 2.208 0 0 1 .505-2.274l.007-.007.05-.05a.837.837 0 0 0 .181-.909.834.834 0 0 0-.18-.27h-.002a.833.833 0 0 0-1.179 0l-.057.056a2.208 2.208 0 0 1-2.431.444 2.208 2.208 0 0 1-1.335-2.02V2.5A.834.834 0 0 0 10 1.667ZM16.167 12.5l.762.336a.542.542 0 0 0 .106.595l.046.046a2.5 2.5 0 0 1 0 3.538l-.59-.59.59.589a2.5 2.5 0 0 1-3.537 0l-.046-.046a.542.542 0 0 0-.595-.106l-.008.004a.542.542 0 0 0-.328.494v.14a2.5 2.5 0 0 1-5 0v-.063a.542.542 0 0 0-.355-.488.932.932 0 0 1-.048-.02.542.542 0 0 0-.595.106l-.046.046a2.501 2.501 0 1 1-3.537-3.537l.046-.046a.542.542 0 0 0 .106-.595l-.004-.008a.542.542 0 0 0-.494-.328H2.5a2.5 2.5 0 1 1 0-5h.063a.542.542 0 0 0 .488-.355.831.831 0 0 1 .02-.048.542.542 0 0 0-.106-.595l-.046-.046a2.5 2.5 0 1 1 3.537-3.537l.046.046a.542.542 0 0 0 .595.106.834.834 0 0 1 .166-.054.542.542 0 0 0 .237-.444V2.5a2.5 2.5 0 1 1 5 0v.073a.542.542 0 0 0 .328.494l.008.004a.542.542 0 0 0 .595-.106l.046-.046a2.5 2.5 0 1 1 3.537 3.537l-.046.046a.541.541 0 0 0-.106.595.83.83 0 0 1 .054.166.543.543 0 0 0 .444.237h.14a2.5 2.5 0 0 1 0 5h-.073a.542.542 0 0 0-.494.328l-.766-.328Z" fill="CurrentColor"/>
</g></symbol><symbol id="sidebar" viewBox="0 0 24 24"><g fill="none">
    <path fill-rule="evenodd" clip-rule="evenodd" d="M5 22a3 3 0 0 1-3-3V5a3 3 0 0 1 3-3h14a3 3 0 0 1 3 3v14a3 3 0 0 1-3 3H5ZM4 5a1 1 0 0 1 1-1h3v16H5a1 1 0 0 1-1-1V5Zm6 15V4h9a1 1 0 0 1 1 1v14a1 1 0 0 1-1 1h-9Z" fill="CurrentColor"/>
</g></symbol><symbol id="star" viewBox="0 0 22 22"><g fill="none">
    <path fill-rule="evenodd" clip-rule="evenodd" d="M11 0a1 1 0 0 1 .897.557l2.857 5.79 6.39.934a1 1 0 0 1 .554 1.705l-4.623 4.503 1.09 6.362a1 1 0 0 1-1.45 1.054L11 17.9l-5.715 3.005a1 1 0 0 1-1.45-1.054l1.09-6.362L.302 8.986a1 1 0 0 1 .553-1.705l6.39-.935L10.104.557A1 1 0 0 1 11 0Zm0 3.26L8.807 7.702a1 1 0 0 1-.752.546l-4.907.718 3.55 3.457a1 1 0 0 1 .288.885l-.838 4.883 4.386-2.307a1 1 0 0 1 .931 0l4.387 2.307-.838-4.883a1 1 0 0 1 .288-.885l3.55-3.457-4.907-.718a1 1 0 0 1-.752-.546L11 3.259Z" fill="CurrentColor"/>
</g></symbol><symbol id="tab" viewBox="0 0 56 56"><g fill="none">
    <path fill-rule="evenodd" clip-rule="evenodd" d="M21 38a3 3 0 0 1-3-3V21a3 3 0 0 1 3-3h14a3 3 0 0 1 3 3v14a3 3 0 0 1-3 3H21Zm-1-17a1 1 0 0 1 1-1h3v16h-3a1 1 0 0 1-1-1V21Zm6 15V20h9a1 1 0 0 1 1 1v14a1 1 0 0 1-1 1h-9Z" fill="CurrentColor"/>
</g></symbol><symbol id="unpin" viewBox="0 0 20 20"><g fill="none">
    <path fill-rule="evenodd" clip-rule="evenodd" d="M1.423.244A.833.833 0 1 0 .244 1.423l5.177 5.176a5.151 5.151 0 0 0-1.035.302C3.34 7.324 2.43 8.033 1.902 8.563a.794.794 0 0 0-.234.57c0 .214.084.43.248.593l3.598 3.598-2.322 2.322a.822.822 0 0 0-.212.796.744.744 0 0 0 .58.58c.275.073.58.002.795-.213l2.322-2.321 3.597 3.597a.843.843 0 0 0 .584.248H10.867a.799.799 0 0 0 .57-.234c.53-.53 1.24-1.438 1.662-2.484.13-.32.238-.67.303-1.035l5.175 5.176a.833.833 0 1 0 1.179-1.179L1.423.244Zm9.992 12.35L7.407 8.585a.84.84 0 0 1-.326-.131c-.543-.367-1.24-.352-2.047-.026a5.989 5.989 0 0 0-1.339.78l4.068 4.067a.812.812 0 0 1 .02.02l3.01 3.01c.292-.384.582-.85.78-1.338.325-.806.34-1.504-.026-2.047a.84.84 0 0 1-.132-.326Z" fill="CurrentColor"/>
    <path d="m16.348 7.172-2.821 2.821 1.177 1.177L18.1 7.775a.8.8 0 0 0 .234-.58.764.764 0 0 0-.197-.527.85.85 0 0 0-.051-.056l-1.81-1.81a.828.828 0 0 0-.02-.02L13.39 1.915a.865.865 0 0 0-.055-.051.767.767 0 0 0-.525-.197h-.003a.803.803 0 0 0-.58.234L8.83 5.296l1.178 1.178 2.821-2.822 1.89 1.89a.81.81 0 0 0 .02.021l1.61 1.609Z" fill="CurrentColor"/>
</g></symbol></svg>