<svg viewBox="0 0 4 16" fill="none" xmlns="http://www.w3.org/2000/svg">
<path d="M0.333333 2.16667C0.333333 1.24619 1.07952 0.5 2 0.5C2.92047 0.5 3.66667 1.24619 3.66667 2.16667C3.66667 3.08714 2.92047 3.83333 2 3.83333C1.07952 3.83333 0.333333 3.08714 0.333333 2.16667Z" fill="CurrentColor"/>
<path d="M0.333333 8C0.333333 7.07952 1.07952 6.33333 2 6.33333C2.92047 6.33333 3.66667 7.07952 3.66667 8C3.66667 8.92047 2.92047 9.66667 2 9.66667C1.07952 9.66667 0.333333 8.92047 0.333333 8Z" fill="CurrentColor"/>
<path d="M2 12.1667C1.07952 12.1667 0.333333 12.9129 0.333333 13.8333C0.333333 14.7538 1.07952 15.5 2 15.5C2.92047 15.5 3.66667 14.7538 3.66667 13.8333C3.66667 12.9129 2.92047 12.1667 2 12.1667Z" fill="CurrentColor"/>
</svg>
